# xmcd
#
# Track frame offsets:
# 150
# 18167
# 27815
# 39770
# 48080
# 59452
# 73015
# 85632
# 97290
# 113037
#
# Disc length: 1724 seconds
#
# Revision: 0
# Processed by: cddbd v1.5.2PL0 Copyright (c) Steve Scherf et al.
# Submitted via: Axialis_AX_CDPlayer 2.6
#
DISCID=7306ba0a
DTITLE=Rusty Richards - The American Cowboy
DYEAR=1900
DGENRE=
TTITLE0=Ghost of Serrano Ridge
TTITLE1=Fence Rider
TTITLE2=Wild Wolves
TTITLE3=Yellow Jacket
TTITLE4=Texas Girl
TTITLE5=Stampede
TTITLE6=Early Mornin' Trails
TTITLE7=(Casey Tibbs) South Dakota Cowboy
TTITLE8=Crazy One
TTITLE9=The Last Cowboy
EXTD=
EXTT0=
EXTT1=
EXTT2=
EXTT3=
EXTT4=
EXTT5=
EXTT6=
EXTT7=
EXTT8=
EXTT9=
PLAYORDER=
